<svg xmlns="http://www.w3.org/2000/svg" viewBox="0 0 1200 630">
  <rect width="1200" height="630" fill="#060709"/>
  <g stroke="#7dd3fc" stroke-width="1" opacity="0.12">
    <path d="M0 90 H1200 M0 180 H1200 M0 270 H1200 M0 360 H1200 M0 450 H1200 M0 540 H1200"/>
    <path d="M150 0 V630 M300 0 V630 M450 0 V630 M600 0 V630 M750 0 V630 M900 0 V630 M1050 0 V630"/>
  </g>
  <!-- swarm motif right -->
  <g transform="translate(880,315)">
    <g stroke="#7dd3fc" stroke-width="2" stroke-dasharray="4 5" opacity="0.7">
      <line x1="0" y1="0" x2="0" y2="-110"/>
      <line x1="0" y1="0" x2="105" y2="60"/>
      <line x1="0" y1="0" x2="-105" y2="60"/>
      <line x1="0" y1="0" x2="0" y2="120"/>
    </g>
    <circle cx="0" cy="-110" r="16" fill="#0b0d12" stroke="#7dd3fc" stroke-width="2.5"/>
    <circle cx="0" cy="-110" r="5" fill="#7dd3fc"/>
    <circle cx="105" cy="60" r="16" fill="#0b0d12" stroke="#a78bfa" stroke-width="2.5"/>
    <circle cx="105" cy="60" r="5" fill="#a78bfa"/>
    <circle cx="-105" cy="60" r="16" fill="#0b0d12" stroke="#fcd34d" stroke-width="2.5"/>
    <circle cx="-105" cy="60" r="5" fill="#fcd34d"/>
    <circle cx="0" cy="120" r="16" fill="#0b0d12" stroke="#5eead4" stroke-width="2.5"/>
    <circle cx="0" cy="120" r="5" fill="#5eead4"/>
    <circle cx="0" cy="0" r="34" fill="#0b0d12" stroke="#7dd3fc" stroke-width="3"/>
    <circle cx="0" cy="0" r="17" fill="none" stroke="#7dd3fc" stroke-width="1.5" opacity="0.6"/>
    <circle cx="0" cy="0" r="7" fill="#7dd3fc"/>
  </g>
  <!-- wordmark left -->
  <text x="90" y="240" font-family="monospace" font-size="26" letter-spacing="8" fill="#5d6474">AUTONOMOUS COORDINATION NETWORK</text>
  <text x="86" y="350" font-family="sans-serif" font-size="110" font-weight="bold" letter-spacing="14" fill="#ffffff">CORESWARM</text>
  <text x="90" y="410" font-family="monospace" font-size="28" fill="#7dd3fc">agents coordinate · evidence accumulates · claims verified</text>
  <text x="90" y="452" font-family="monospace" font-size="28" fill="#5d6474">disagreements resolved · every decision traceable</text>
  <rect x="90" y="500" width="220" height="44" rx="8" fill="none" stroke="#262c39"/>
  <text x="112" y="529" font-family="monospace" font-size="24" fill="#8b93a5">coreswarm/1 · ed25519</text>
</svg>
